<mxfile host="app.diagrams.net" modified="2024-01-31T06:25:43.648Z" agent="Mozilla/5.0 (Macintosh; Intel Mac OS X 10_15_7) AppleWebKit/537.36 (KHTML, like Gecko) Chrome/120.0.0.0 Safari/537.36" version="22.1.18" etag="5LsGkwh7D3za9Zk_22ni" type="github">
  <diagram name="Page-1" id="ia7iUwZqR8qMmh_oqr4Q">
    <mxGraphModel>
      <root>
        <mxCell id="0" />
        <mxCell id="1" parent="0" />
      </root>
    </mxGraphModel>
  </diagram>
</mxfile>
